<svg width="981" height="1024" viewBox="0 0 981 1024" fill="none" xmlns="http://www.w3.org/2000/svg">
<path fill-rule="evenodd" clip-rule="evenodd" d="M825.183 -104.329C891.639 -116.256 950.52 -62.0773 997.718 -13.7965C1044.27 33.8225 1088.63 92.4428 1082.35 158.738C1076.37 221.846 1020.49 266.079 967.857 301.412C925.913 329.57 875.568 327.713 825.183 331.386C768.06 335.551 706.863 356.88 660.071 323.851C608.195 287.233 570.678 221.457 580.595 158.738C589.957 99.5328 664.343 82.6115 705.157 38.7128C749.216 -8.67467 761.496 -92.898 825.183 -104.329Z" fill="#9C6FE4"/>
<path fill-rule="evenodd" clip-rule="evenodd" d="M685.006 540.596C801.471 488.001 903.35 393.317 1030 410.311C1178.63 430.254 1333.18 501.659 1399.01 636.4C1464.57 770.608 1407.14 926.749 1349.66 1064.61C1297.22 1190.36 1216.91 1302.87 1095.42 1364.52C973.024 1426.63 835.337 1419.37 700.441 1394.06C535.591 1363.12 334.62 1353.84 254.156 1206.67C172.895 1058.05 242.338 866.696 334.336 724.471C408.857 609.265 559.959 597.067 685.006 540.596Z" fill="#9C6FE4"/>
<path fill-rule="evenodd" clip-rule="evenodd" d="M205.374 253.736C261.752 255.383 323.63 240.888 366.368 277.694C410.935 316.076 425.47 380.114 420.133 438.688C415.212 492.692 379.683 536.403 339.479 572.793C301.705 606.983 256.206 629.623 205.374 633.072C150.424 636.8 91.4587 630.477 51.7483 592.313C11.4882 553.621 6.04585 494.45 3.1127 438.688C-0.0469032 378.622 -9.70002 308.594 34.6891 268.003C78.4897 227.951 146.047 252.002 205.374 253.736Z" fill="#9C6FE4"/>
<path fill-rule="evenodd" clip-rule="evenodd" d="M909.811 179.501C938.858 180.349 970.738 172.881 992.758 191.844C1015.72 211.619 1023.21 244.613 1020.46 274.791C1017.92 302.614 999.618 325.135 978.904 343.883C959.442 361.499 936.001 373.163 909.811 374.94C881.5 376.86 851.121 373.603 830.661 353.941C809.919 334.006 807.115 303.52 805.604 274.791C803.976 243.844 799.002 207.764 821.872 186.852C844.439 166.216 879.245 178.608 909.811 179.501Z" fill="#9C6FE4" fill-opacity="0.6"/>
<path fill-rule="evenodd" clip-rule="evenodd" d="M470.307 -22.9417C497.222 -45.5969 532.623 -50.6073 567.797 -51.2766C599.998 -51.8894 633.821 -48.4652 657.377 -26.5016C680.085 -5.32854 679.217 28.1533 685.577 58.5424C693.477 96.2891 717.691 135.757 698.316 169.101C677.574 204.799 632.355 219.04 591.12 221.108C551.251 223.108 515.28 204.102 483.554 179.875C449.751 154.062 411.992 124.646 409.22 82.2048C406.474 40.1561 438.069 4.19431 470.307 -22.9417Z" fill="#9C6FE4" fill-opacity="0.6"/>
<path fill-rule="evenodd" clip-rule="evenodd" d="M266.307 699.058C293.222 676.403 328.623 671.393 363.797 670.723C395.998 670.111 429.821 673.535 453.377 695.499C476.085 716.672 475.217 750.153 481.577 780.543C489.477 818.289 513.691 857.757 494.316 891.101C473.574 926.8 428.355 941.04 387.12 943.109C347.251 945.109 311.28 926.102 279.554 901.875C245.751 876.062 207.992 846.647 205.22 804.205C202.474 762.156 234.069 726.194 266.307 699.058Z" fill="#9C6FE4" fill-opacity="0.6"/>
</svg>
